PathFileType	4	(X/Y/Z)	../Python\walking\Walking10\task.trc
DataRate	CameraRate	NumFrames	NumMarkers	Units	OrigDataRate	OrigDataStartFrame	OrigNumFrames
200.000000	200.000000	5	30	mm	200.000000	224	598
Frame#	Time	CLAV			STRN			RASI			LASI			RTH1			RTH2			RTH3			RTB1			RTB3			RD5M			RTOE			LTH1			LTH2			LTH3			LTB1			LTB2			LTB3			LTOE			LD5M			RTB2			T10			RHEE			C7			PE02			PE03			RPSI			LPSI			PE01			RBAK			LHEE			
		X1	Y1	Z1	X2	Y2	Z2	X3	Y3	Z3	X4	Y4	Z4	X5	Y5	Z5	X6	Y6	Z6	X7	Y7	Z7	X8	Y8	Z8	X9	Y9	Z9	X10	Y10	Z10	X11	Y11	Z11	X12	Y12	Z12	X13	Y13	Z13	X14	Y14	Z14	X15	Y15	Z15	X16	Y16	Z16	X17	Y17	Z17	X18	Y18	Z18	X19	Y19	Z19	X20	Y20	Z20	X21	Y21	Z21	X22	Y22	Z22	X23	Y23	Z23	X24	Y24	Z24	X25	Y25	Z25	X26	Y26	Z26	X27	Y27	Z27	X28	Y28	Z28	X29	Y29	Z29	X30	Y30	Z30	

225	1.12	499.0227966308596	1395.00537109375	194.1388702392579	544.183044433594	1199.981689453125	207.1348266601564	530.405944824219	1001.165161132813	344.3897399902345	517.7627563476565	991.754272460938	64.83559417724612	559.4923095703127	744.3182373046877	397.3439025878909	518.078063964844	702.1870117187502	378.0713806152345	555.449890136719	669.420593261719	372.1648559570314	720.2778930664065	375.8448181152345	328.6024475097657	747.8274536132815	302.3935852050782	319.6426086425782	944.034545898438	68.15166473388675	305.0096740722657	976.115600585938	112.8555068969727	270.5248107910157	357.6861267089845	706.8323974609377	49.68440246582034	321.1834106445314	678.550720214844	70.52801513671878	358.370819091797	629.2965087890627	66.70280456542972	218.7853088378907	367.9126281738282	104.5960159301758	177.7594299316407	342.9682922363282	119.1772232055665	211.0398406982423	290.3553771972657	117.4685363769532	258.2513122558595	29.96826171875001	176.1135559082032	204.4638061523439	20.50304222106934	133.749252319336	701.466979980469	317.7400817871095	329.215545654297	316.8439331054689	1234.60693359375	185.096420288086	791.3624877929692	20.62352943420411	232.4119110107423	386.5497131347659	1489.086669921875	174.0513916015626	355.2497558593751	1021.208984375	253.2328948974611	347.7757263183595	1020.613098144532	202.3252105712892	362.0363159179689	1033.196411132813	275.3192138671876	349.3026123046876	1035.161376953125	176.6016693115235	361.6196289062501	1081.399536132813	225.2640228271486	352.6129760742189	1409.188232421875	345.0399169921876	51.56401824951175	78.79579925537112	206.5912628173829	
226	1.125	506.1472473144534	1394.743774414063	194.5188446044923	551.7178344726565	1199.777099609375	207.4391937255861	538.1866455078127	1001.018920898438	344.7612304687501	525.8261718750002	990.906372070313	65.07086181640628	566.7556762695315	744.3552856445315	397.8169250488284	525.4123535156252	702.3237304687502	378.2296752929689	562.9336547851565	669.6206665039065	372.324676513672	725.4582519531252	374.5489501953126	328.5814819335939	752.3438110351565	300.8270568847657	319.442840576172	946.041381835938	64.49028778076175	305.1848754882814	978.8803100585942	108.5732727050782	271.1712646484376	364.3900451660157	706.7421875000002	49.90572738647464	327.8112182617189	678.6091308593752	70.80931091308597	364.7264709472657	629.1584472656252	66.74531555175784	223.3514251708986	368.8238525390626	104.2566604614258	182.0084838867188	344.3298950195314	118.6701583862305	214.7402191162111	291.3638916015626	117.1323623657227	258.4487304687501	29.98692893981935	176.0016632080079	204.698211669922	20.52597808837891	133.6339111328126	706.0496215820315	316.5598449707032	328.7108459472657	324.3497009277345	1233.971557617188	185.2082061767579	793.2666625976567	19.45018386840821	231.756072998047	393.5244140625002	1488.674560546875	174.3749542236329	363.0031127929689	1021.033081054688	253.2795562744142	355.657440185547	1020.328979492188	202.3589172363282	369.7579650878907	1033.066650390625	275.3638610839845	357.2718811035157	1034.776611328125	176.6027374267579	369.4512634277345	1081.162353515625	225.1819915771486	359.5841674804689	1408.556396484375	345.3184204101564	52.55749511718753	81.89600372314456	205.5339508056642	
227	1.13	513.2991333007815	1394.56298828125	194.9095764160157	559.3040771484377	1199.664428710938	207.7526702880861	546.0003051757815	1000.991394042969	345.1372070312501	533.9895629882815	990.1004028320317	65.34383392333987	574.1414184570315	744.537048339844	398.2469482421877	532.8440551757815	702.5920410156252	378.4344177246095	570.5003051757815	669.9368896484377	372.4938049316407	730.538757324219	373.2896728515626	328.5581665039064	756.7153930664065	299.2803649902345	319.2489318847657	947.666137695313	60.56061553955081	305.4082641601564	981.396606445313	103.8886032104493	271.8875427246095	371.3025207519532	706.632995605469	50.08804702758792	334.6347045898439	678.6468505859377	71.02287292480472	371.2947387695314	629.0083618164065	66.79544067382815	228.0917053222657	369.7744750976564	103.8804931640626	186.4242401123047	345.7445678710939	118.1128540039063	218.5958404541017	292.425262451172	116.7586898803712	258.6712646484376	30.00332450866701	175.8802795410157	204.9504241943361	20.55236053466798	133.5006408691407	710.4983520507815	315.4262695312501	328.2216186523439	331.9107666015626	1233.396362304688	185.3186798095704	794.7250976562505	18.41290664672852	231.1600646972657	400.5179138183596	1488.329467773438	174.7089996337891	370.808074951172	1020.943908691407	253.3072052001954	363.6062622070314	1020.119201660157	202.3743438720704	377.5248107910157	1033.030029296875	275.3877258300782	365.3189086914064	1034.4580078125	176.5805816650391	377.334686279297	1081.004272460938	225.0650634765626	366.5860900878907	1407.987670898438	345.6058044433595	53.66761779785159	85.14524841308597	204.4050140380861	
228	1.135	520.4770507812502	1394.463012695313	195.3099212646486	566.9382934570315	1199.64404296875	208.074432373047	553.8428955078127	1001.084899902344	345.5167541503907	542.2471313476565	989.3381347656255	65.65557861328128	581.6326904296877	744.8552856445315	398.6338195800784	540.3482055664065	702.9888916015627	378.6880493164064	578.1123046875002	670.3594970703127	372.6714782714845	735.5313110351565	372.086883544922	328.5360412597657	760.9743652343752	297.7848205566407	319.0662536621095	949.0018920898442	56.44686126708987	305.6684875488282	983.7551269531255	98.8963241577149	272.6462402343751	378.4214782714845	706.5040283203127	50.23849105834964	341.6539306640626	678.6629638671877	71.18159484863284	378.0756225585939	628.844665527344	66.85853576660159	233.0086975097657	370.7666625976564	103.473373413086	191.0122680664063	347.2131958007814	117.5159530639649	222.6114959716798	293.5405273437501	116.3498611450196	258.913787841797	30.01472473144533	175.7509307861329	205.2161560058595	20.58468818664551	133.3518524169922	714.8437500000002	314.3568725585939	327.7629394531251	339.5239868164064	1232.883544921875	185.4266815185547	795.838012695313	17.55812454223634	230.6212005615236	407.5296020507815	1488.052124023438	175.0521697998047	378.6602172851564	1020.941101074219	253.3152465820314	371.6175231933595	1019.982971191407	202.3710937500001	385.3323974609377	1033.086303710938	275.390106201172	373.438201904297	1034.205200195313	176.5348510742188	385.2647399902346	1080.9248046875	224.9126281738282	373.6175231933595	1407.483642578125	345.9005737304689	54.91013336181643	88.54485321044925	203.2154846191407	
229	1.14	527.6794433593752	1394.44384765625	195.7185821533204	574.616882324219	1199.715576171875	208.4034423828126	561.7098388671877	1001.301147460938	345.8987731933595	550.5918579101565	988.620971679688	66.00709533691409	589.2117309570315	745.3023071289065	398.9781188964846	547.8995361328127	703.5115966796877	378.992401123047	585.7327880859377	670.8803710937502	372.8572998046876	740.4477539062502	370.9602050781251	328.5188903808595	765.1513671875002	296.3706054687501	318.9003906250001	950.1356811523442	52.23714828491214	305.9548339843751	986.0357055664067	93.6962585449219	273.4149780273439	385.7430419921877	706.356140136719	50.36635589599612	348.8681030273439	678.6578369140627	71.30127716064456	385.0675048828127	628.6669921875002	66.93981933593753	238.1058349609376	371.8026428222657	103.0407943725587	195.7791595458986	348.736541748047	116.8900451660157	226.7928619384767	294.7105102539064	115.9072875976563	259.169158935547	30.01806449890138	175.6154785156251	205.4909210205079	20.62568855285645	133.189682006836	719.1152954101565	313.3692626953126	327.3500061035157	347.1856994628907	1232.4345703125	185.5310516357422	796.7007446289067	16.92241477966309	230.1378326416017	414.5588073730471	1487.8427734375	175.403060913086	386.5543518066409	1021.023864746094	253.3028564453126	379.6856079101564	1019.919067382813	202.3485260009767	393.1756286621096	1033.234497070313	275.3702697753907	381.623260498047	1034.017333984375	176.4649810791016	393.2358093261721	1080.922729492188	224.7240600585939	380.6771545410157	1407.046142578125	346.201141357422	56.30267333984378	92.0956726074219	201.9759216308595	
